<svg width="138" height="135" viewBox="0 0 138 135" fill="none" xmlns="http://www.w3.org/2000/svg">
<g filter="url(#filter0_b_601_203)">
<rect width="82" height="82" fill="#E31E24"/>
</g>
<path d="M18.9044 67.5H69.5294V75.9375H18.9044V67.5Z" fill="white"/>
<path d="M10.4669 46.4062H52.6544V54.8438H10.4669V46.4062Z" fill="white"/>
<path d="M128.25 70.0566L115.594 40.5253C115.269 39.7663 114.729 39.1193 114.039 38.6648C113.35 38.2103 112.543 37.9683 111.717 37.9688H99.0606V29.5312C99.0606 28.4124 98.6162 27.3393 97.825 26.5481C97.0338 25.757 95.9608 25.3125 94.8419 25.3125H27.3419V33.75H90.6231V86.7206C88.7008 87.8369 87.0184 89.3227 85.6731 91.0923C84.3278 92.8619 83.3461 94.8804 82.7847 97.0312H56.2741C55.2473 93.0544 52.8053 89.5886 49.4059 87.2834C46.0065 84.9782 41.8831 83.992 37.8086 84.5095C33.7341 85.027 29.9882 87.0128 27.273 90.0946C24.5579 93.1765 23.0599 97.1427 23.0599 101.25C23.0599 105.357 24.5579 109.324 27.273 112.405C29.9882 115.487 33.7341 117.473 37.8086 117.991C41.8831 118.508 46.0065 117.522 49.4059 115.217C52.8053 112.911 55.2473 109.446 56.2741 105.469H82.7847C83.7024 109.089 85.8012 112.301 88.7491 114.595C91.6969 116.889 95.3255 118.134 99.0606 118.134C102.796 118.134 106.424 116.889 109.372 114.595C112.32 112.301 114.419 109.089 115.337 105.469H124.373C125.492 105.469 126.565 105.024 127.356 104.233C128.147 103.442 128.592 102.369 128.592 101.25V71.7188C128.592 71.1472 128.476 70.5817 128.25 70.0566V70.0566ZM39.9981 109.688C38.3294 109.688 36.6981 109.193 35.3105 108.266C33.923 107.338 32.8415 106.021 32.2029 104.479C31.5643 102.937 31.3972 101.241 31.7228 99.6039C32.0483 97.9672 32.8519 96.4638 34.0319 95.2838C35.2119 94.1038 36.7154 93.3002 38.3521 92.9746C39.9888 92.6491 41.6853 92.8162 43.227 93.4548C44.7688 94.0934 46.0865 95.1748 47.0137 96.5624C47.9408 97.9499 48.4356 99.5812 48.4356 101.25C48.4334 103.487 47.5437 105.632 45.9619 107.214C44.38 108.796 42.2352 109.685 39.9981 109.688V109.688ZM99.0606 46.4062H108.933L117.978 67.5H99.0606V46.4062ZM99.0606 109.688C97.3919 109.688 95.7606 109.193 94.373 108.266C92.9855 107.338 91.904 106.021 91.2654 104.479C90.6268 102.937 90.4597 101.241 90.7853 99.6039C91.1108 97.9672 91.9144 96.4638 93.0944 95.2838C94.2744 94.1038 95.7778 93.3002 97.4146 92.9746C99.0513 92.6491 100.748 92.8162 102.29 93.4548C103.831 94.0934 105.149 95.1748 106.076 96.5624C107.003 97.9499 107.498 99.5812 107.498 101.25C107.496 103.487 106.606 105.632 105.024 107.214C103.443 108.796 101.298 109.685 99.0606 109.688ZM120.154 97.0312H115.337C114.407 93.4176 112.305 90.2145 109.36 87.9241C106.414 85.6336 102.792 84.3854 99.0606 84.375V75.9375H120.154V97.0312Z" fill="white"/>
<defs>
<filter id="filter0_b_601_203" x="-4" y="-4" width="90" height="90" filterUnits="userSpaceOnUse" color-interpolation-filters="sRGB">
<feFlood flood-opacity="0" result="BackgroundImageFix"/>
<feGaussianBlur in="BackgroundImageFix" stdDeviation="2"/>
<feComposite in2="SourceAlpha" operator="in" result="effect1_backgroundBlur_601_203"/>
<feBlend mode="normal" in="SourceGraphic" in2="effect1_backgroundBlur_601_203" result="shape"/>
</filter>
</defs>
</svg>
