<svg width="132" height="135" viewBox="0 0 132 135" fill="none" xmlns="http://www.w3.org/2000/svg">
<g filter="url(#filter0_b_601_201)">
<rect width="82" height="82" fill="#E31E24"/>
</g>
<path d="M116.471 56.25H112.831V33.75C112.831 32.7554 112.447 31.8016 111.765 31.0984C111.082 30.3951 110.156 30 109.191 30H21.8382C20.9763 30.0145 20.1374 29.7134 19.4709 29.1503C18.8044 28.5871 18.3535 27.7986 18.1984 26.925V25.575C18.3535 24.7014 18.8044 23.9129 19.4709 23.3497C20.1374 22.7866 20.9763 22.4855 21.8382 22.5H107.662C108.628 22.5 109.554 22.1049 110.236 21.4016C110.919 20.6984 111.302 19.7446 111.302 18.75C111.302 17.7554 110.919 16.8016 110.236 16.0984C109.554 15.3951 108.628 15 107.662 15H21.8382C18.9422 15 16.1649 16.1853 14.1172 18.295C12.0694 20.4048 10.919 23.2663 10.919 26.25C10.8935 26.6996 10.8935 27.1504 10.919 27.6V104.738C10.9333 106.757 11.3335 108.753 12.0966 110.613C12.8598 112.473 13.9711 114.159 15.3669 115.576C16.7628 116.994 18.4159 118.114 20.2319 118.873C22.048 119.632 23.9913 120.015 25.951 120H109.191C110.156 120 111.082 119.605 111.765 118.902C112.447 118.198 112.831 117.245 112.831 116.25V93.75H116.471C117.436 93.75 118.362 93.3549 119.044 92.6517C119.727 91.9484 120.11 90.9946 120.11 90V60C120.11 59.0054 119.727 58.0516 119.044 57.3484C118.362 56.6451 117.436 56.25 116.471 56.25ZM105.551 112.5H25.951C23.9266 112.52 21.9764 111.716 20.5245 110.262C19.0727 108.809 18.2367 106.823 18.1984 104.738V37.05C19.3799 37.4028 20.6092 37.5547 21.8382 37.5H105.551V56.25H80.0734C75.2469 56.25 70.618 58.2254 67.2051 61.7417C63.7923 65.2581 61.8749 70.0272 61.8749 75C61.8749 79.9728 63.7923 84.7419 67.2051 88.2583C70.618 91.7746 75.2469 93.75 80.0734 93.75H105.551V112.5ZM112.831 86.25H80.0734C77.1775 86.25 74.4002 85.0647 72.3525 82.955C70.3047 80.8452 69.1543 77.9837 69.1543 75C69.1543 72.0163 70.3047 69.1548 72.3525 67.045C74.4002 64.9353 77.1775 63.75 80.0734 63.75H112.831V86.25Z" fill="white"/>
<path d="M83.7497 80.625C86.7649 80.625 89.2092 78.1066 89.2092 75C89.2092 71.8934 86.7649 69.375 83.7497 69.375C80.7344 69.375 78.2901 71.8934 78.2901 75C78.2901 78.1066 80.7344 80.625 83.7497 80.625Z" fill="white"/>
<defs>
<filter id="filter0_b_601_201" x="-4" y="-4" width="90" height="90" filterUnits="userSpaceOnUse" color-interpolation-filters="sRGB">
<feFlood flood-opacity="0" result="BackgroundImageFix"/>
<feGaussianBlur in="BackgroundImageFix" stdDeviation="2"/>
<feComposite in2="SourceAlpha" operator="in" result="effect1_backgroundBlur_601_201"/>
<feBlend mode="normal" in="SourceGraphic" in2="effect1_backgroundBlur_601_201" result="shape"/>
</filter>
</defs>
</svg>
