<svg width="135" height="136" viewBox="0 0 135 136" fill="none" xmlns="http://www.w3.org/2000/svg">
<g filter="url(#filter0_b_601_200)">
<rect width="82" height="82" fill="#E31E24"/>
</g>
<path d="M116.793 71.3608C119.008 68.434 120.234 64.8481 120.234 61.1171C120.234 55.1977 116.925 49.5946 111.599 46.4701C110.228 45.6659 108.667 45.2426 107.077 45.2441H75.4629L76.2539 29.0414C76.4385 25.1259 75.0542 21.4081 72.3647 18.5736C71.0449 17.1766 69.4525 16.065 67.6861 15.3076C65.9197 14.5502 64.0167 14.1632 62.0947 14.1703C55.2393 14.1703 49.1748 18.7846 47.3555 25.3896L36.0308 66.3905H18.9844C16.6509 66.3905 14.7656 68.2758 14.7656 70.6093V118.598C14.7656 120.931 16.6509 122.816 18.9844 122.816H98.2573C99.4702 122.816 100.657 122.579 101.751 122.104C108.026 119.428 112.074 113.298 112.074 106.495C112.074 104.834 111.836 103.199 111.362 101.617C113.577 98.6903 114.803 95.1044 114.803 91.3734C114.803 89.7123 114.565 88.0775 114.091 86.4955C116.306 83.5688 117.532 79.9828 117.532 76.2519C117.505 74.5907 117.268 72.9428 116.793 71.3608V71.3608ZM24.2578 113.324V75.8827H34.9365V113.324H24.2578ZM108.158 66.786L105.271 69.2909L107.104 72.6396C107.707 73.7426 108.02 74.9812 108.013 76.2387C108.013 78.414 107.064 80.4838 105.429 81.9076L102.542 84.4125L104.375 87.7611C104.978 88.8642 105.291 90.1028 105.284 91.3603C105.284 93.5356 104.335 95.6054 102.7 97.0292L99.813 99.5341L101.646 102.883C102.249 103.986 102.562 105.224 102.555 106.482C102.555 109.435 100.815 112.098 98.1255 113.311H43.374V75.4609L56.4917 27.934C56.83 26.7158 57.5561 25.6411 58.56 24.8727C59.5639 24.1043 60.791 23.6841 62.0552 23.6757C63.0571 23.6757 64.0459 23.9657 64.8369 24.559C66.1421 25.5346 66.8408 27.0111 66.7617 28.58L65.4961 54.7362H106.945C109.292 56.1733 110.742 58.599 110.742 61.1171C110.742 63.2924 109.793 65.349 108.158 66.786Z" fill="white"/>
<defs>
<filter id="filter0_b_601_200" x="-4" y="-4" width="90" height="90" filterUnits="userSpaceOnUse" color-interpolation-filters="sRGB">
<feFlood flood-opacity="0" result="BackgroundImageFix"/>
<feGaussianBlur in="BackgroundImageFix" stdDeviation="2"/>
<feComposite in2="SourceAlpha" operator="in" result="effect1_backgroundBlur_601_200"/>
<feBlend mode="normal" in="SourceGraphic" in2="effect1_backgroundBlur_601_200" result="shape"/>
</filter>
</defs>
</svg>
